<!DOCTYPE svg PUBLIC "-//W3C//DTD SVG 1.1//EN" "http://www.w3.org/Graphics/SVG/1.1/DTD/svg11.dtd">
<!-- Uploaded to: SVG Repo, www.svgrepo.com, Transformed by: SVG Repo Mixer Tools -->
<svg fill="#000000" version="1.1" id="Layer_1" xmlns="http://www.w3.org/2000/svg" xmlns:xlink="http://www.w3.org/1999/xlink" viewBox="0 0 512 512" xml:space="preserve" width="128px" height="128px">
<g id="SVGRepo_bgCarrier" stroke-width="0"/>
<g id="SVGRepo_tracerCarrier" stroke-linecap="round" stroke-linejoin="round"/>
<g id="SVGRepo_iconCarrier"> <g> <g> <path d="M64.673,280.239v80.869h102.419v-80.869H64.673z M107.786,344.912H80.869v-48.478h26.917V344.912z M150.898,344.912 h-26.917v-48.478h26.917V344.912z"/> </g> </g> <g> <g> <path d="M417.678,59.28c-16.349,0-29.648,13.305-29.648,29.659c0,16.349,13.3,29.648,29.648,29.648 c16.354,0,29.659-13.3,29.659-29.648C447.337,72.586,434.032,59.28,417.678,59.28z M417.678,102.392 c-7.419,0-13.453-6.035-13.453-13.453c0-7.424,6.034-13.464,13.453-13.464c7.424,0,13.464,6.04,13.464,13.464 C431.142,96.357,425.102,102.392,417.678,102.392z"/> </g> </g> <g> <g> <path d="M331.454,59.28c-16.354,0-29.659,13.305-29.659,29.659c0,16.349,13.305,29.648,29.659,29.648 c16.349,0,29.648-13.3,29.648-29.648C361.102,72.586,347.803,59.28,331.454,59.28z M331.454,102.392 c-7.424,0-13.464-6.035-13.464-13.453c0-7.424,6.04-13.464,13.464-13.464c7.419,0,13.453,6.04,13.453,13.464 C344.907,96.357,338.873,102.392,331.454,102.392z"/> </g> </g> <g> <g> <rect x="99.709" y="204.796" width="70.061" height="16.195"/> </g> </g> <g> <g> <rect x="61.985" y="204.796" width="21.561" height="16.195"/> </g> </g> <g> <g> <rect x="99.709" y="167.061" width="70.061" height="16.195"/> </g> </g> <g> <g> <rect x="61.985" y="167.061" width="21.561" height="16.195"/> </g> </g> <g> <g> <path d="M490.449,420.361V21.556H21.561v398.805H0v70.083h512v-70.083H490.449z M37.757,91.639h245.187V75.443H37.757V37.751 h436.497v344.885h-48.478V150.925h24.239v-16.195h-24.239h-8.098H158.995v16.195h35.014v91.59H37.757V91.639z M210.205,312.576 v-26.917h199.376v26.917H210.205z M409.581,328.771v53.866H344.94v-53.866H409.581z M328.744,328.771v53.866h-37.703v-53.866 H328.744z M274.846,328.771v53.866h-64.641v-53.866H274.846z M210.205,269.464V150.925h199.376v118.539H210.205z M37.757,258.71 H194.01v123.926H37.757V258.71z M495.805,474.249H16.195v-37.692h428.432v-16.195H37.757v-21.529h436.497v37.724h21.551V474.249z"/> </g> </g> </g>
</svg>